<svg id="Layer_1" data-name="Layer 1" xmlns="http://www.w3.org/2000/svg" viewBox="0 0 181.32 181.42"><defs><style>.cls-1{fill:#fff;}.cls-1,.cls-2{stroke:#eee;stroke-miterlimit:10;}.cls-2{fill:none;}</style></defs><title>d20background</title><path class="cls-1" d="M119.42,53.13" transform="translate(-8.46 -8.15)"/><path class="cls-1" d="M119.27,53.06" transform="translate(-8.46 -8.15)"/><polyline class="cls-2" points="118.26 124.6 138.27 107.99 130.14 59.51 129.54 58.79 83.34 41.82 63.34 58.42"/><path class="cls-2" d="M59.89,82.35" transform="translate(-8.46 -8.15)"/><path class="cls-2" d="M78.73,146.35" transform="translate(-8.46 -8.15)"/><path class="cls-1" d="M78.73,146.35" transform="translate(-8.46 -8.15)"/><path class="cls-1" d="M78.73,146.35" transform="translate(-8.46 -8.15)"/><polyline class="cls-2" points="118.26 124.6 98.26 141.2 52.1 124.28 51.5 123.56 43.33 75.03 63.34 58.42"/><path class="cls-2" d="M119.27,53.06" transform="translate(-8.46 -8.15)"/><polyline class="cls-2" points="43.33 75.03 65.21 87.56 90.74 118.33 98.26 141.2"/><polyline class="cls-2" points="52.1 124.28 90.74 118.33 138.27 107.99 116.27 71.02 83.34 41.82 65.21 87.56 51.5 123.56"/><path class="cls-2" d="M119.27,53.06" transform="translate(-8.46 -8.15)"/><polyline class="cls-2" points="65.21 87.56 116.27 71.02 130.14 59.51"/><line class="cls-2" x1="90.74" y1="118.33" x2="116.27" y2="71.02"/><path class="cls-1" d="M50.37,16.88" transform="translate(-8.46 -8.15)"/><path class="cls-1" d="M50.32,16.82" transform="translate(-8.46 -8.15)"/><polyline class="cls-2" points="36.5 38.09 45.54 30.75 42.13 8.99 41.86 8.67 21.25 0.85 12.21 8.19"/><path class="cls-2" d="M20.67,16.34" transform="translate(-8.46 -8.15)"/><path class="cls-2" d="M15.08,45.7" transform="translate(-8.46 -8.15)"/><path class="cls-1" d="M15.08,45.7" transform="translate(-8.46 -8.15)"/><path class="cls-1" d="M15.08,45.7" transform="translate(-8.46 -8.15)"/><polyline class="cls-2" points="36.5 38.09 27.46 45.44 6.87 37.64 6.6 37.31 3.17 15.54 12.21 8.19"/><path class="cls-2" d="M50.32,16.82" transform="translate(-8.46 -8.15)"/><polyline class="cls-2" points="3.17 15.54 12.91 21.25 24.2 35.16 27.46 45.44"/><polyline class="cls-2" points="6.87 37.64 24.2 35.16 45.54 30.75 35.86 14.09 21.25 0.85 12.91 21.25 6.6 37.31"/><path class="cls-2" d="M50.32,16.82" transform="translate(-8.46 -8.15)"/><polyline class="cls-2" points="12.91 21.25 35.86 14.09 42.13 8.99"/><line class="cls-2" x1="24.2" y1="35.15" x2="35.86" y2="14.08"/><path class="cls-1" d="M182.74,17.29" transform="translate(-8.46 -8.15)"/><path class="cls-1" d="M182.69,17.23" transform="translate(-8.46 -8.15)"/><polyline class="cls-2" points="168.87 38.51 177.91 31.16 174.49 9.41 174.23 9.08 153.62 1.26 144.58 8.61"/><path class="cls-2" d="M153,16.76" transform="translate(-8.46 -8.15)"/><path class="cls-2" d="M147.45,46.11" transform="translate(-8.46 -8.15)"/><path class="cls-1" d="M147.45,46.11" transform="translate(-8.46 -8.15)"/><path class="cls-1" d="M147.45,46.11" transform="translate(-8.46 -8.15)"/><polyline class="cls-2" points="168.87 38.51 159.83 45.85 139.23 38.05 138.97 37.73 135.54 15.95 144.58 8.61"/><path class="cls-2" d="M182.69,17.23" transform="translate(-8.46 -8.15)"/><polyline class="cls-2" points="135.54 15.95 145.28 21.67 156.57 35.57 159.83 45.85"/><polyline class="cls-2" points="139.23 38.05 156.57 35.57 177.91 31.16 168.23 14.5 153.62 1.26 145.28 21.67 138.97 37.73"/><path class="cls-2" d="M182.69,17.23" transform="translate(-8.46 -8.15)"/><polyline class="cls-2" points="145.28 21.67 168.23 14.5 174.49 9.41"/><line class="cls-2" x1="156.57" y1="35.57" x2="168.23" y2="14.5"/><path class="cls-1" d="M156.25,180.47" transform="translate(-8.46 -8.15)"/><path class="cls-1" d="M156.2,180.41" transform="translate(-8.46 -8.15)"/><path class="cls-2" d="M156.2,180.41" transform="translate(-8.46 -8.15)"/><path class="cls-2" d="M156.2,180.41" transform="translate(-8.46 -8.15)"/><polyline class="cls-2" points="171.5 173.09 180.54 165.75 177.13 143.99 176.86 143.67 156.25 135.85 147.21 143.19"/><path class="cls-2" d="M155.67,151.34" transform="translate(-8.46 -8.15)"/><path class="cls-2" d="M150.08,180.7" transform="translate(-8.46 -8.15)"/><path class="cls-1" d="M150.08,180.7" transform="translate(-8.46 -8.15)"/><path class="cls-1" d="M150.08,180.7" transform="translate(-8.46 -8.15)"/><polyline class="cls-2" points="171.5 173.09 162.46 180.44 141.87 172.64 141.6 172.31 138.17 150.54 147.21 143.19"/><polyline class="cls-2" points="138.17 150.54 147.91 156.25 159.2 170.16 162.46 180.44"/><polyline class="cls-2" points="141.87 172.64 159.2 170.16 180.54 165.75 170.86 149.09 156.25 135.85 147.91 156.25 141.6 172.31"/><polyline class="cls-2" points="147.91 156.25 170.86 149.09 177.13 143.99"/><line class="cls-2" x1="159.2" y1="170.15" x2="170.86" y2="149.08"/><polyline class="cls-2" points="33.87 173.51 42.91 166.16 39.49 144.41 39.23 144.08 18.62 136.26 9.58 143.61"/><path class="cls-2" d="M18,151.76" transform="translate(-8.46 -8.15)"/><path class="cls-2" d="M12.45,181.11" transform="translate(-8.46 -8.15)"/><path class="cls-1" d="M12.45,181.11" transform="translate(-8.46 -8.15)"/><path class="cls-1" d="M12.45,181.11" transform="translate(-8.46 -8.15)"/><polyline class="cls-2" points="33.87 173.51 24.83 180.85 4.23 173.05 3.97 172.73 0.54 150.95 9.58 143.61"/><polyline class="cls-2" points="0.54 150.95 10.28 156.67 21.57 170.57 24.83 180.85"/><polyline class="cls-2" points="4.23 173.05 21.57 170.57 42.91 166.16 33.23 149.5 18.62 136.26 10.28 156.67 3.97 172.73"/><polyline class="cls-2" points="10.28 156.67 33.23 149.5 39.49 144.41"/><line class="cls-2" x1="21.57" y1="170.57" x2="33.23" y2="149.5"/></svg>