<svg xmlns="http://www.w3.org/2000/svg" xmlns:xlink="http://www.w3.org/1999/xlink" version="1.1" x="0px" y="0px" viewBox="0 0 100 125" enable-background="new 0 0 100 100" xml:space="preserve"><g><path d="M20.284,78.416c0,0,9.622,8.303,29.716,8.303s29.717-8.303,29.717-8.303l-0.001-7.121c0,0-9.623,8.301-29.717,8.301   c-20.093,0-29.716-8.301-29.716-8.301L20.284,78.416z"/></g><g><path d="M50,96.699c-22.201,0-33.168-9.242-33.624-9.636c-1.673-1.443-1.858-3.969-0.415-5.642   c1.438-1.667,3.949-1.856,5.623-0.432c0.175,0.146,9.497,7.709,28.416,7.709c19.259,0,28.31-7.616,28.398-7.692   c1.673-1.444,4.199-1.258,5.642,0.415c1.443,1.673,1.257,4.199-0.415,5.642C83.169,87.457,72.2,96.699,50,96.699z"/></g><g><path d="M50.001,3.301c-21.724,0-39.334,17.61-39.334,39.333c0,11.154,4.651,21.217,12.11,28.375   c4.032,2.431,13.002,6.586,27.222,6.586c14.228,0,23.199-4.159,27.229-6.59c7.457-7.158,12.106-17.219,12.106-28.371   C89.334,20.912,71.724,3.301,50.001,3.301z M82.085,41.181c-0.03,0.541-0.038,1.04-0.091,1.502   c-0.087,0.462-0.167,0.886-0.239,1.269c-0.134,0.76-0.303,1.347-0.391,1.744c-0.107,0.395-0.164,0.606-0.164,0.606h-0.4   c0,0-0.054-0.828-0.148-2.276c-0.024-0.361-0.051-0.762-0.08-1.197c-0.072-0.431-0.15-0.896-0.234-1.394   c-0.161-0.997-0.33-2.121-0.687-3.312c-0.158-0.599-0.323-1.223-0.494-1.869c-0.232-0.626-0.474-1.274-0.721-1.939   c-0.124-0.333-0.249-0.67-0.376-1.012c-0.14-0.336-0.316-0.661-0.475-0.998c-0.327-0.669-0.661-1.354-1.001-2.049   c-0.832-1.305-1.582-2.726-2.62-3.982c-0.927-1.34-2.1-2.508-3.205-3.73c-1.224-1.104-2.391-2.278-3.73-3.204   c-1.256-1.039-2.677-1.789-3.982-2.621c-0.695-0.34-1.38-0.674-2.049-1c-0.337-0.159-0.662-0.336-0.998-0.475   c-0.342-0.127-0.679-0.252-1.012-0.376c-0.665-0.248-1.313-0.488-1.938-0.721c-0.646-0.171-1.271-0.336-1.87-0.494   c-1.192-0.357-2.312-0.523-3.304-0.686c-0.496-0.083-0.96-0.162-1.39-0.234c-0.438-0.03-0.842-0.057-1.206-0.081   c-1.457-0.095-2.289-0.149-2.289-0.149l0.02-0.399c0,0,0.212-0.058,0.609-0.165c0.396-0.089,0.979-0.258,1.717-0.395   c0.369-0.074,0.778-0.156,1.224-0.245c0.465-0.055,0.97-0.061,1.519-0.093c0.556-0.024,1.147-0.049,1.771-0.075   c0.639-0.034,1.248,0.09,1.927,0.135c0.675,0.069,1.378,0.141,2.105,0.215c0.713,0.144,1.44,0.341,2.2,0.522   c1.542,0.31,3.061,0.962,4.668,1.583c0.77,0.376,1.537,0.793,2.318,1.213c0.804,0.387,1.532,0.911,2.272,1.433   c1.542,0.97,2.868,2.26,4.247,3.484c1.223,1.379,2.51,2.708,3.479,4.249c0.523,0.74,1.042,1.472,1.432,2.274   c0.421,0.78,0.834,1.55,1.211,2.318c0.313,0.803,0.64,1.58,0.901,2.361c0.133,0.39,0.281,0.766,0.393,1.152   c0.098,0.39,0.193,0.775,0.288,1.155c0.181,0.76,0.383,1.486,0.521,2.2c0.075,0.727,0.147,1.43,0.217,2.104   c0.044,0.674,0.174,1.296,0.134,1.917C82.135,40.056,82.109,40.636,82.085,41.181z"/></g><!-- <text x="0" y="115" fill="#000000" font-size="5px" font-weight="bold" font-family="'Helvetica Neue', Helvetica, Arial-Unicode, Arial, Sans-serif">Created by Bakunetsu Kaito</text><text x="0" y="120" fill="#000000" font-size="5px" font-weight="bold" font-family="'Helvetica Neue', Helvetica, Arial-Unicode, Arial, Sans-serif">from the Noun Project</text> --></svg>