<svg xmlns="http://www.w3.org/2000/svg" xmlns:xlink="http://www.w3.org/1999/xlink" version="1.1" x="0px" y="0px" viewBox="0 0 100 125" enable-background="new 0 0 100 100" xml:space="preserve"><g><path d="M49.84,65.908c1.168-0.838,2.615-3.049,3.156-5.08c0.143-0.377,0.227-0.781,0.227-1.209c0-0.053-0.006-0.105-0.01-0.158   c0-0.008,0.002-0.016,0.002-0.023c0-0.27-0.039-0.486-0.107-0.674c-0.379-1.453-1.695-2.527-3.268-2.527   c-1.869,0-3.383,1.516-3.383,3.383c0,0.125,0.008,0.248,0.021,0.369C46.687,62.004,48.461,64.92,49.84,65.908z"/><path d="M87.431,59.781c0.035-0.127,0.06-0.258,0.06-0.396c0-4.298-3.497-7.795-7.795-7.795H57.604l-0.043-27.747   c0-0.154-0.03-0.299-0.073-0.438c0.657-0.159,1.147-0.748,1.147-1.454v-6.584c0-4.848-3.945-8.792-8.795-8.792   c-4.847,0-8.791,3.944-8.791,8.792v6.584c0,0.693,0.473,1.271,1.112,1.443c-0.051,0.151-0.085,0.311-0.084,0.479l0.042,27.717   H20.736c-4.298,0-7.795,3.497-7.795,7.795c0,0.14,0.025,0.273,0.062,0.401c-0.028,0.2-0.062,0.398-0.062,0.606   c0,2.443,1.988,4.432,4.433,4.432s4.433-1.988,4.433-4.432c0-2.438-1.979-4.423-4.417-4.432c0.865-0.846,2.044-1.371,3.346-1.371   h22.865c-1.109,1.376-1.777,3.123-1.777,5.023c0,0.295,0.019,0.583,0.048,0.867c0.146,1.419,0.621,2.979,1.291,4.516   c-2.719-1.642-5.986-3.008-9.54-3.291l-0.004-2.889c-0.001-0.828-0.672-1.498-1.5-1.498c0,0-0.001,0-0.002,0   c-0.829,0.001-1.499,0.674-1.498,1.502l0.047,34.771c0.001,0.828,0.672,1.498,1.5,1.498c0,0,0.001,0,0.002,0   c0.829-0.001,1.499-0.674,1.498-1.502l-0.039-28.866c8.069,0.784,14.786,8.41,15.05,8.715l0.04,20.123   c0.001,0.827,0.673,1.497,1.5,1.497c0.001,0,0.002,0,0.003,0c0.828-0.002,1.499-0.675,1.497-1.503l-0.04-20.36   c1.238-1.359,7.483-7.795,14.896-8.479l0.039,28.782c0.001,0.828,0.673,1.498,1.5,1.498c0.001,0,0.001,0,0.002,0   c0.828-0.001,1.499-0.674,1.498-1.502l-0.047-34.77c-0.001-0.828-0.673-1.498-1.5-1.498c-0.001,0-0.001,0-0.002,0   c-0.828,0.001-1.499,0.674-1.498,1.502l0.004,2.973c-3.896,0.297-7.442,1.906-10.311,3.749c0.459-1.018,0.84-2.049,1.109-3.045   c0.336-0.903,0.506-1.842,0.506-2.79c0-0.088-0.005-0.176-0.014-0.321c0-0.012,0-0.021,0-0.03c0-0.64-0.089-1.209-0.271-1.738   c-0.296-1.097-0.811-2.088-1.49-2.934h23.597c1.302,0,2.481,0.525,3.346,1.371c-2.435,0.01-4.414,1.993-4.414,4.432   c0,2.443,1.988,4.432,4.432,4.432c2.444,0,4.434-1.988,4.434-4.432C87.492,60.184,87.459,59.983,87.431,59.781z M18.807,60.393   c0,0.789-0.643,1.432-1.433,1.432s-1.433-0.643-1.433-1.432c0-0.79,0.643-1.434,1.433-1.434S18.807,59.603,18.807,60.393z    M45.089,32.188c4.578-0.803,7.633-2.466,9.479-3.847l0.009,5.702c-1.222,1.17-4.177,3.438-9.478,4.447L45.089,32.188z    M54.561,23.848l0.003,1.875c-1.229,1.174-4.185,3.434-9.478,4.438l-0.01-6.293c0-0.146-0.028-0.284-0.067-0.417h9.611   C54.585,23.578,54.561,23.709,54.561,23.848z M45.102,40.517c4.583-0.806,7.636-2.474,9.479-3.855l0.009,5.7   c-1.214,1.166-4.169,3.442-9.478,4.456L45.102,40.517z M44.049,15.366c0-3.194,2.598-5.792,5.791-5.792   c3.195,0,5.795,2.599,5.795,5.792v5.084H44.049V15.366z M45.115,48.846c4.586-0.809,7.638-2.481,9.478-3.863l0.011,6.607h-9.485   L45.115,48.846z M54.703,58.344c0.012,0.044,0.024,0.087,0.04,0.13c0.078,0.217,0.116,0.475,0.118,0.718   c-0.003,0.051-0.005,0.125-0.003,0.175l0.015,0.247c0,0.607-0.113,1.211-0.337,1.794c-0.019,0.049-0.035,0.1-0.048,0.15   c-0.841,3.159-2.897,6.476-4.642,8.215c-2.155-2.137-4.672-6.52-4.99-9.602c-0.019-0.184-0.032-0.368-0.032-0.558   c0-2.77,2.253-5.023,5.023-5.023C52.129,54.59,54.126,56.134,54.703,58.344z M83.059,61.824c-0.789,0-1.432-0.643-1.432-1.432   c0-0.79,0.643-1.434,1.432-1.434c0.79,0,1.434,0.644,1.434,1.434C84.492,61.182,83.849,61.824,83.059,61.824z"/></g><!-- <text x="0" y="115" fill="#000000" font-size="5px" font-weight="bold" font-family="'Helvetica Neue', Helvetica, Arial-Unicode, Arial, Sans-serif">Created by birdie brain</text><text x="0" y="120" fill="#000000" font-size="5px" font-weight="bold" font-family="'Helvetica Neue', Helvetica, Arial-Unicode, Arial, Sans-serif">from the Noun Project</text> --></svg>