<svg xmlns:dc="http://purl.org/dc/elements/1.1/" xmlns:cc="http://creativecommons.org/ns#" xmlns:rdf="http://www.w3.org/1999/02/22-rdf-syntax-ns#" xmlns:svg="http://www.w3.org/2000/svg" xmlns="http://www.w3.org/2000/svg" xmlns:sodipodi="http://sodipodi.sourceforge.net/DTD/sodipodi-0.dtd" xmlns:inkscape="http://www.inkscape.org/namespaces/inkscape" version="1.1" x="0px" y="0px" viewBox="0 0 100 125"><g transform="translate(0,-952.36218)"><path style="text-indent:0;text-transform:none;direction:ltr;block-progression:tb;baseline-shift:baseline;color:#000000;enable-background:accumulate;" d="m 49.999998,958.36219 c -24.2795,0 -44,19.69641 -44,43.96871 0,24.2819 19.7205,44.0313 44,44.0313 24.269704,0 44.000004,-19.7488 44.000004,-44.0313 0,-24.27288 -19.7303,-43.96871 -44.000004,-43.96871 z m -2.75,4.09375 -12.2188,37.56246 a 2.0002,2.0002 0 1 0 3.7812,1.2188 l 11.1563,-34.31251 5.6875,17.625 a 2.0060942,2.0060942 0 1 0 3.8125,-1.25 l -6.75,-20.84375 c 15.617804,1.05434 28.775904,11.03641 34.375004,24.90625 l -40.500004,0 a 2.0002,2.0002 0 1 0 0,4 l 37.031304,0 -14.6876,10.65621 a 2.0002,2.0002 0 1 0 2.375,3.2188 l 17.4688,-12.68751 c 0.7856,3.13027 1.2188,6.40537 1.2188,9.78121 0,12.3235 -5.5709,23.3534 -14.3126,30.6875 L 63.062398,994.20594 a 2.0002,2.0002 0 0 0 -1.9687,-1.40625 2.0002,2.0002 0 0 0 -1.8437,2.65625 l 11.531204,35.46876 -14.937504,-10.875 a 2.0002,2.0002 0 0 0 -1.125,-0.375 2.0002,2.0002 0 0 0 -0.4063,0 2.0002,2.0002 0 0 0 -0.8437,3.625 l 17.812504,12.9062 c -6.1647,3.8804 -13.451504,6.1563 -21.281204,6.1563 -7.8335,0 -15.148,-2.276 -21.3126,-6.1563 l 32.6876,-23.75 a 2.0002,2.0002 0 0 0 -1.0938,-3.625 2.0002,2.0002 0 0 0 -0.2188,0 2.0002,2.0002 0 0 0 -1.0312,0.4063 l -29.8438,21.6875 5.5,-17 a 2.0002,2.0002 0 0 0 -1.875,-2.625 2.0002,2.0002 0 0 0 -1.9374,1.4062 l -6.5938,20.3125 c -8.7406,-7.334 -14.2812,-18.3637 -14.2812,-30.6875 0,-3.37571 0.4024,-6.65109 1.1874,-9.78121 l 32.9688,23.96871 a 2.0034906,2.0034906 0 1 0 2.3438,-3.25 l -30.1563,-21.90621 18.1563,0 a 2.0002,2.0002 0 1 0 0,-4 l -21.625,0 c 5.5954,-13.86685 18.7553,-23.8482 34.375,-24.90625 z" fill="#000000" fill-opacity="1" fill-rule="evenodd" stroke="none" marker="none" visibility="visible" display="inline" overflow="visible"/></g><!-- <text x="0" y="115" fill="#000000" font-size="5px" font-weight="bold" font-family="'Helvetica Neue', Helvetica, Arial-Unicode, Arial, Sans-serif">Created by andriwidodo</text><text x="0" y="120" fill="#000000" font-size="5px" font-weight="bold" font-family="'Helvetica Neue', Helvetica, Arial-Unicode, Arial, Sans-serif">from the Noun Project</text> --></svg>