<svg xmlns="http://www.w3.org/2000/svg" data-name="Layer 4" viewBox="0 0 84.96 74.7" x="0px" y="0px"><title>lotus</title><path d="M160,53.25c-0.44-.64,6.13.11,7,0.33s3.61-1.11,4.42-1,1.08,0.67,2.17.5,0-.58,1.08-1.42,4.69-1,5.5-1.67,4.58-4,5.83-4,2.12,0.67,2,2.5,0.09,13.08-10.25,15.17C165.75,67.5,160.44,53.89,160,53.25Z" transform="translate(-127.79 -12.25)"/><path d="M166.62,62.74a2.58,2.58,0,0,1-1.16-1.07s-12.89,4.18-15.24,5-12.75.69-15.11,0.44-7.33,1.2-7.33,1.2a49.74,49.74,0,0,1,6,.58c2.84,0.49,13.24,3.83,16.93,3S157.69,71.89,166.62,62.74Z" transform="translate(-127.79 -12.25)"/><path d="M164.27,61.49s-11.51,3.6-14.62,4.71c-2.22.44-13.46,0.49-15.33,0.31s-5.91,1.11-5.91,1.11a28,28,0,0,0,3.29-3.07c1-1.25,3.42-6.62,6.26-7.73s9.86-1.65,9.86-1.65,6.09,4.55,9.06,5.39A36.41,36.41,0,0,0,164.27,61.49Z" transform="translate(-127.79 -12.25)"/><path d="M159.56,52.47c1.78-.76,6.76.82,7.6,0.58a8.53,8.53,0,0,1,3.11-.89c1.07-.84-12.17-7.42-16.08-8.8s-10.8.53-13.15,0.31-6.89,1.47-6.89,1.47,2,0.3,3.29.58,8.35,9.24,9.55,9a1.19,1.19,0,0,1,1.2-.22c0.89,0.18,6.84,4.84,8.35,5.33s6,0.93,7.73,1.2C162.8,60.11,158.54,53.89,159.56,52.47Z" transform="translate(-127.79 -12.25)"/><path d="M135,44.21s4-1.16,4.62-1.16a6.58,6.58,0,0,1,1.91,0c1.16,0.18,7.42-.71,7.42-0.71s-5.15-4.8-8.89-3.64S135,44.21,135,44.21Z" transform="translate(-127.79 -12.25)"/><path d="M181.81,24.56c-1.94,2.44-8.34,6.81-11.48,9.44S165,47.31,165,47.31s4.88,2.69,6.19,4.31a2.05,2.05,0,0,1,1.81.69,3.32,3.32,0,0,1,1-1.56c0.82-.75,4.06-0.41,5.44-1.44s5.5-4.19,6.81-4.37A1.6,1.6,0,0,1,188.31,46a7.25,7.25,0,0,1,.38,2.94s1.82-.94,1.94-2.19,0.65-5.75,0-8.75S184.18,25.86,181.81,24.56Z" transform="translate(-127.79 -12.25)"/><path d="M155.56,26s-1.13,7.63-1.75,8.63-1.58,5.81.31,7.69c2.19,0.55,9.94,4.81,9.94,4.81-0.13.3,2.86-10,4.63-12.87a7.46,7.46,0,0,1,2.19-1.81,8.39,8.39,0,0,0-6.31-4.37A59,59,0,0,1,155.56,26Z" transform="translate(-127.79 -12.25)"/><path d="M171.71,31.81a6.63,6.63,0,0,0-1.71-2s4.68-4.21,5.46-5.56,3.22-5.86,5-7.06L186,13.38a10,10,0,0,0,.44,1.88c0.38,1.19,2.56,2.63,3.53,7.34s0.72,13.22.72,13.22-4.56-10.19-8.94-12.25C180.34,25.25,173.46,30.38,171.71,31.81Z" transform="translate(-127.79 -12.25)"/><path d="M156.63,25.56s6.32,1.75,8.69,1.75a5.18,5.18,0,0,1,3.81,1.88l4.63-4.12a15.14,15.14,0,0,0-5.57-2.19c-3-.44-8.76-5.06-8.76-4S156.63,25.56,156.63,25.56Z" transform="translate(-127.79 -12.25)"/><path d="M157.31,21.81c0,0.94-1.5,3.31-1.5,3.31s-1.2-.64-1.31,0c0,0-.35,6.06-1.49,8.75s-0.78,7.94-.78,7.94S145.73,27.5,149,19.38C151.94,21.56,157.31,20.88,157.31,21.81Z" transform="translate(-127.79 -12.25)"/><path d="M162.18,19.06s3.67,2.56,5.06,2.63,6.78,2.5,6.78,2.5A35.16,35.16,0,0,1,178.41,18c-4.38-1.81-7.47-4.62-9.59-5.75C167.24,14.06,162.18,19.06,162.18,19.06Z" transform="translate(-127.79 -12.25)"/><path d="M188,54.67a22.29,22.29,0,0,0,.82-4.67c1.32-1.11,1.83-.67,2.58-2.33s0.83-7,0-11.1c0.92-3.07-.47-14.65-0.47-14.65s11.56-3.25,14.72-2.54c-3.17,1.88-2.58,4.88-3.08,6.63s1.71,8.09,1.42,10.17-0.83,9.33-4.75,10.5S188,54.67,188,54.67Z" transform="translate(-127.79 -12.25)"/><path d="M184.5,61s2.82-2.71,3.17-5.13A84.86,84.86,0,0,1,201.92,46c4.17-.58,4.53-0.1,5.5,1.13l5.33,6.79s-6.42,3.54-8.17,5.33-7.25,3.92-10.33,3.92S184.5,61,184.5,61Z" transform="translate(-127.79 -12.25)"/><path d="M194.25,65.42c-4.17,0-9-2.92-9-2.92s8.07,1.89,9.42,1.46c2.17-.21,9.17-2.91,9.17-2.91S198.42,65.42,194.25,65.42Z" transform="translate(-127.79 -12.25)"/><!-- <text x="0" y="74.75999999999999" fill="#000000" font-size="5px" font-weight="bold" font-family="'Helvetica Neue', Helvetica, Arial-Unicode, Arial, Sans-serif">Created by Rachel Siao</text><text x="0" y="79.75999999999999" fill="#000000" font-size="5px" font-weight="bold" font-family="'Helvetica Neue', Helvetica, Arial-Unicode, Arial, Sans-serif">from the Noun Project</text> --></svg>