<svg xmlns="http://www.w3.org/2000/svg" xmlns:xlink="http://www.w3.org/1999/xlink" version="1.1" x="0px" y="0px" viewBox="0 0 100 125" enable-background="new 0 0 100 100" xml:space="preserve"><path d="M83.79,22.371c-2.661,9.812-8.371,16.335-17.075,19.453C68.842,21.154,82.617,13.35,96.393,7.542  c-20.339-1.689-38.532,4.341-53.375,20.865c0.059-6.746,2.846-11.738,8.015-15.199c-15.735,2.145-23.934,11.883-27.628,26.159  c-2.195-3.077-2.606-6.788-1.735-10.953c0,0-13.747,16.892-10.477,35.605c0.372,2.127,0.981,4.15,1.777,6.068  c-0.032-0.488-0.055-0.978-0.055-1.474c0-12.131,9.869-22,22-22s22,9.869,22,22c0,10.269-7.073,18.915-16.602,21.328  c5.986,0.736,12.268,0.059,17.835-2.159c16.062-6.4,23.3-25.633,23.3-25.633c-2.976,3.107-6.388,4.57-10.232,4.402  C81.639,54.555,84.93,39.434,83.79,22.371z"/><path d="M52.917,68.613c0-9.925-8.075-18-18-18s-18,8.075-18,18s8.075,18,18,18S52.917,78.539,52.917,68.613z"/><!-- <text x="0" y="115" fill="#000000" font-size="5px" font-weight="bold" font-family="'Helvetica Neue', Helvetica, Arial-Unicode, Arial, Sans-serif">Created by Alina Oleynik</text><text x="0" y="120" fill="#000000" font-size="5px" font-weight="bold" font-family="'Helvetica Neue', Helvetica, Arial-Unicode, Arial, Sans-serif">from the Noun Project</text> --></svg>