<svg xmlns:dc="http://purl.org/dc/elements/1.1/" xmlns:cc="http://creativecommons.org/ns#" xmlns:rdf="http://www.w3.org/1999/02/22-rdf-syntax-ns#" xmlns:svg="http://www.w3.org/2000/svg" xmlns="http://www.w3.org/2000/svg" version="1.1" x="0px" y="0px" viewBox="0 0 100 125"><g transform="matrix(0.08145725,0,0,0.08145725,5.0001874,5.0000012)" style="" fill="#000000"><path d="m 550.73621,0 c -35.00788,0.14173228 -70.01575,3.5787402 -104.45669,10.311024 6.76771,5.704724 13.35826,11.763779 19.73622,18.141732 32.27952,32.279528 55.94882,69.909449 70.97244,110.055114 111.3307,-4.21653 224.0433,36.14174 309.04723,121.14568 84.64961,84.6496 125.04331,196.79527 121.1811,307.66535 39.29529,15.09449 76.11019,38.48032 107.78739,70.15748 7.1929,7.19292 13.9606,14.63386 20.3032,22.32284 4.9606,-25.40551 8.1496,-51.09449 9.5669,-76.85433 l 0,-60.20079 C 1097.7519,391.46457 1044.0708,262.24016 943.75982,161.92913 836.11415,54.283465 695.12597,0.31889764 554.06692,0.03543307 L 550.73621,0 z m 1.27559,154.66536 c -3.15354,0 -6.30709,0.0709 -9.46063,0.14173 33.16535,106.29921 7.65354,226.98425 -76.53543,311.17323 -84.22441,84.22441 -204.90945,109.73622 -311.20866,76.57086 l 0,0 c -2.72834,105.30709 36.1063,211.50001 116.50394,291.86221 79.97244,79.97244 185.49212,118.80709 290.30314,116.50394 C 527.35038,844.05119 552.64959,722.26772 637.47636,637.44095 722.2677,552.64961 844.05116,527.38583 950.9173,561.61418 953.18502,456.80315 914.38581,351.28347 834.41337,271.27559 756.42518,193.32284 654.20077,154.45276 552.0118,154.66536 z m -98.3622,246.8622 c -9.14174,0.1063 -23.74016,8.43307 -37.24016,21.89764 -17.5748,17.5748 -26.32677,37.13386 -19.62992,43.86614 l 25.65354,25.61811 c 13.32284,-9.60236 26.07874,-20.40945 38.09055,-32.42126 9.56693,-9.56693 18.38976,-19.62992 26.4685,-30.08268 l -26.6811,-26.64566 c -1.55905,-1.55906 -3.8622,-2.30315 -6.66141,-2.23229 z M 10.311023,446.27953 C -23.811023,620.78741 26.716535,808.58268 161.92913,943.79528 262.20472,1044.0709 391.46456,1097.752 522.74408,1104.874 l 60.12992,0 c 25.79528,-1.3819 51.48425,-4.5708 76.9252,-9.5669 -7.68898,-6.3425 -15.16536,-13.0748 -22.32284,-20.2677 C 605.7992,1043.3622 582.41337,1006.5118 567.31888,967.21654 456.44881,971.07875 344.30314,930.68505 259.65354,846.03544 174.6496,761.0315 134.29134,648.3189 138.50787,536.98819 98.362202,521.96457 60.732282,498.29528 28.452755,466.01575 22.074803,459.6378 16.015748,453.04725 10.311023,446.27953 z M 673.01573,616.46457 c -10.45275,8.07874 -20.48031,16.90158 -30.08267,26.46851 -11.97638,12.01181 -22.8189,24.73228 -32.42126,38.09055 l 423.8504,423.85037 70.5118,0 0,-56.5512 -431.85827,-431.85823 z" style="" fill="#000000" fill-opacity="1" fill-rule="nonzero" stroke="none"/></g><!-- <text x="0" y="115" fill="#000000" font-size="5px" font-weight="bold" font-family="'Helvetica Neue', Helvetica, Arial-Unicode, Arial, Sans-serif">Created by Bonegolem</text><text x="0" y="120" fill="#000000" font-size="5px" font-weight="bold" font-family="'Helvetica Neue', Helvetica, Arial-Unicode, Arial, Sans-serif">from the Noun Project</text> --></svg>