<svg xmlns="http://www.w3.org/2000/svg" xmlns:xlink="http://www.w3.org/1999/xlink" xml:space="preserve" version="1.1" style="shape-rendering:geometricPrecision;text-rendering:geometricPrecision;image-rendering:optimizeQuality;" viewBox="0 0 194 326.25" x="0px" y="0px" fill-rule="evenodd" clip-rule="evenodd"><defs><style type="text/css">
   
    .fil0 {fill:black}
   
  </style></defs><g><path class="fil0" d="M193 116l0 -70c0,-21 -38,-24 -38,-5 -1,29 -1,47 -1,56 0,9 -2,16 4,25l0 0c8,12 31,8 35,-6z"/><path class="fil0" d="M63 73c0,-10 1,-27 1,-52 -3,-30 -42,-30 -40,13l0 51c4,-2 7,-3 11,-4l0 0c10,-2 20,-5 28,-8z"/><path class="fil0" d="M107 51c0,-5 0,-12 0,-22 0,-25 -33,-28 -36,-3 -1,20 -1,35 -1,44l0 0c10,-4 19,-9 26,-13l0 0c4,-3 8,-5 11,-6z"/><path class="fil0" d="M113 91c-3,31 33,25 34,10l0 0c2,-18 1,-44 1,-63 2,-26 -30,-28 -34,-8 0,9 0,15 0,20 1,0 3,1 5,2l0 0c3,3 5,7 5,12 0,11 -5,19 -11,27z"/><path class="fil0" d="M28 196c15,12 23,33 25,65l101 0c-3,-24 -1,-40 3,-47 27,-21 39,-50 36,-86 -11,11 -32,11 -42,-3l0 0c-2,-3 -3,-6 -3,-10 -16,11 -41,5 -42,-18 -7,6 -15,12 -25,18 19,12 31,25 36,39 5,15 2,31 -11,47 -1,1 -3,2 -5,0 -1,-1 -2,-3 0,-4 11,-15 14,-28 10,-41 -5,-13 -18,-26 -39,-38l-5 -3 5 -3c16,-9 27,-17 35,-25 0,0 0,0 0,0 6,-6 11,-14 10,-23l0 0c0,-5 -3,-9 -8,-7 -9,3 -21,14 -36,19 -19,8 -39,12 -58,19 -6,3 -13,9 -15,19 -3,24 9,67 28,82z"/></g><!-- <text x="0" y="276" fill="#000000" font-size="5px" font-weight="bold" font-family="'Helvetica Neue', Helvetica, Arial-Unicode, Arial, Sans-serif">Created by Christoper</text><text x="0" y="281" fill="#000000" font-size="5px" font-weight="bold" font-family="'Helvetica Neue', Helvetica, Arial-Unicode, Arial, Sans-serif">from the Noun Project</text> --></svg>