<svg xmlns="http://www.w3.org/2000/svg" xmlns:xlink="http://www.w3.org/1999/xlink" version="1.1" x="0px" y="0px" viewBox="0 0 100 125" enable-background="new 0 0 100 100" xml:space="preserve"><path d="M12.147,98.046c0.558-1.671,4.742-8.622,4.742-8.622c-0.09-1.207-2.917-3.855-2.917-3.855s-2.641-2.833-3.847-2.927  c0,0-6.963,4.166-8.634,4.72c-1.671,0.556,1.754,6.033,3.19,7.475C6.119,96.275,11.588,99.715,12.147,98.046z"/><path d="M54.334,51.567l0.004-0.006c0,0-0.973-0.976-0.322-1.625c0.539-0.536,3.121-3.112,4-3.99  c0.248-0.247,0.293-0.489,0.295-0.622c-0.023-0.612-0.188-1.952-1.107-2.876c-1.229-1.23-2.961-1.848-3.477-1.396l-6.274,5.484  c-0.021-0.002-0.045,0.007-0.075,0.03c-0.434,0.343-0.825,0.274-0.841,0.27c-0.04-0.01-0.081-0.022-0.12-0.037  c-0.01-0.003-0.02-0.007-0.03-0.01c-0.154-0.059-0.303-0.143-0.451-0.247c-0.142-0.104-0.283-0.226-0.421-0.364  c-0.06-0.057-0.119-0.116-0.179-0.181c-0.015-0.016-0.029-0.031-0.044-0.048c-0.006-0.004-0.009-0.011-0.016-0.016  c-0.229-0.26-0.444-0.554-0.64-0.852c-0.662-1.019-1.141-2.165-1.141-2.165c-5.71,3.333-1.054,8.001-1.054,8.001  s2.59,2.47,4.875,3.91c0.019,0.015,0.424,0.301,0.999,0.566c0.578,0.286,1.102,0.457,1.512,0.442c0.31,0.028,0.62,0.009,0.911-0.083  c1.147-0.172,2.54,3.813,2.54,3.813C58.988,56.235,54.334,51.567,54.334,51.567z"/><path d="M55.383,51.182c-0.219,0.218-0.57,0.218-0.789-0.001l-0.232-0.231c-0.217-0.218-0.217-0.571,0.004-0.789l3.828-3.822  c0.221-0.217,0.572-0.217,0.791,0.001l0.23,0.232c0.219,0.219,0.217,0.572-0.002,0.789L55.383,51.182z"/><path d="M10.205,81.612c1.437,0.111,3.606,2.273,4.498,3.227c0.952,0.895,3.108,3.069,3.216,4.509l0.023,0.312  c3.763-2.618,26.804-27.602,31.59-32.809c-0.488-0.044-1.037-0.214-1.676-0.529c-0.528-0.245-0.943-0.513-1.113-0.635  c-2.34-1.479-4.907-3.918-5.016-4.021c-0.023-0.022-0.141-0.145-0.306-0.34c-7.218,6.616-29.077,26.756-31.53,30.26L10.205,81.612z   M34.874,64.722c-0.92-0.925-0.917-2.42,0.004-3.342c0.924-0.92,2.419-0.919,3.341,0.005c0.921,0.924,0.919,2.418-0.005,3.341  C37.29,65.646,35.795,65.644,34.874,64.722z"/><path d="M57.934,41.719c1.15,1.153,1.377,2.729,1.41,3.564v0.065c0,0.054-0.014,0.105-0.02,0.159  c3.088-3.007,8.762-8.513,17.715-17.14C91.83,14.119,98.084,3.608,98.084,3.608c-12.855,8.046-22.389,17.428-22.389,17.428  L60.723,34.956c0.727-0.046,1.223,0.398,1.23,0.407l1.18,1.181L95.504,6.079L63.332,37.021l-0.143,0.14l-1.51-1.516  c-0.027-0.024-0.725-0.638-1.662-0.033l-4.775,4.441C56.223,40.36,57.244,41.028,57.934,41.719z M60.053,36.733  c0.002-0.388,0.316-0.702,0.703-0.702c0.389,0,0.703,0.315,0.701,0.703c0,0.388-0.314,0.702-0.701,0.701  C60.367,37.436,60.053,37.121,60.053,36.733z"/><!-- <text x="0" y="115" fill="#000000" font-size="4px" font-weight="bold" font-family="'Helvetica Neue', Helvetica, Arial-Unicode, Arial, Sans-serif">ic-mihrak propaganda design collective</text><text x="0" y="119" fill="#000000" font-size="4px" font-weight="bold" font-family="'Helvetica Neue', Helvetica, Arial-Unicode, Arial, Sans-serif">from the Noun Project</text> --></svg>