<svg xmlns="http://www.w3.org/2000/svg" xmlns:xlink="http://www.w3.org/1999/xlink" viewBox="0 0 84 105" version="1.1" x="0px" y="0px"><title>Person_5</title><desc>Created with Sketch.</desc><g stroke="none" stroke-width="1" fill="none" fill-rule="evenodd"><g fill="#000000"><path d="M42,35 C49.7319865,35 56,28.7319865 56,21 C56,13.2680135 49.7319865,7 42,7 C34.2680135,7 28,13.2680135 28,21 C28,28.7319865 34.2680135,35 42,35 Z M42,27 C38.6862915,27 36,24.3137085 36,21 C36,17.6862915 38.6862915,15 42,15 C45.3137085,15 48,17.6862915 48,21 C48,24.3137085 45.3137085,27 42,27 Z M32,74 C32,76.209139 33.790861,78 36,78 C38.209139,78 40,76.209139 40,74 L40,43 C40,41.5825429 39.2498353,40.2709424 38.0280805,39.5522631 L21.0280805,29.5522631 C19.123948,28.4321852 16.6723411,29.067787 15.5522631,30.9719195 C14.4321852,32.876052 15.067787,35.3276589 16.9719195,36.4477369 L32,45.2877842 L32,74 Z M67.0280805,36.4477369 C68.932213,35.3276589 69.5678148,32.876052 68.4477369,30.9719195 C67.3276589,29.067787 64.876052,28.4321852 62.9719195,29.5522631 L45.9719195,39.5522631 C44.7501647,40.2709424 44,41.5825429 44,43 L44,74 C44,76.209139 45.790861,78 48,78 C50.209139,78 52,76.209139 52,74 L52,45.2877842 L67.0280805,36.4477369 Z"/></g></g><!-- <text x="0" y="99" fill="#000000" font-size="5px" font-weight="bold" font-family="'Helvetica Neue', Helvetica, Arial-Unicode, Arial, Sans-serif">Created by Milan Gladiš</text><text x="0" y="104" fill="#000000" font-size="5px" font-weight="bold" font-family="'Helvetica Neue', Helvetica, Arial-Unicode, Arial, Sans-serif">from the Noun Project</text> --></svg>