<svg xmlns="http://www.w3.org/2000/svg" viewBox="0 0 75.52 64.05"><defs><style>.cls-1{fill:none;}</style></defs><title>race_halfelf</title><g id="Layer_2" data-name="Layer 2"><g id="Layer_1-2" data-name="Layer 1"><g id="Layer_2-2" data-name="Layer 2"><g id="Layer_1-2-2" data-name="Layer 1-2"><path d="M16.51,17A8.48,8.48,0,1,0,7.95,8.44,8.48,8.48,0,0,0,16.51,17Zm0-4.85a3.63,3.63,0,1,1,3.67-3.63,3.63,3.63,0,0,1-3.67,3.63ZM10.4,40.54a2.45,2.45,0,0,0,4.89,0V21.76a2.42,2.42,0,0,0-1.21-2.09l-10.39-6a2.46,2.46,0,0,0-3.35.86,2.41,2.41,0,0,0,.84,3.3l0,0,9.18,5.35ZM31.81,17.79a2.41,2.41,0,0,0,.89-3.29l0,0a2.46,2.46,0,0,0-3.35-.86L18.94,19.67a2.42,2.42,0,0,0-1.21,2.09V40.54a2.44,2.44,0,0,0,4.89,0V23.15Z"/><path d="M67.45,29.88c6.54-6.54,8.07-28,8.07-28A33.22,33.22,0,0,1,64,4.76c-6.69.57-12.88,1.52-16.51,5.15-5.6,5.6-7,13.58-3.82,19.21,3.51-5.51,17.94-13.37,17.94-13.37C51.24,23.16,46,28.9,38.86,39l3.48.93a40,40,0,0,1,4.85-7C52.85,37,61.49,35.84,67.45,29.88Z"/></g></g><ellipse class="cls-1" cx="37.48" cy="54.23" rx="35.26" ry="9.81"/></g></g></svg>