<svg xmlns="http://www.w3.org/2000/svg" xmlns:xlink="http://www.w3.org/1999/xlink" version="1.1" x="0px" y="0px" viewBox="0 0 100 125" style="enable-background:new 0 0 100 100;" xml:space="preserve"><g><g><g><g><g><g><g><path d="M30.598,64.345c-1.104,0-2-0.896-2-2V59.22c0-3.242,12.445-23.338,19.864-35.028         c0.367-0.579,1.004-0.929,1.688-0.929c0.007,0,0.014,0,0.021,0c0.691,0.008,1.331,0.372,1.689,0.964         c5.634,9.308,18.736,31.348,18.736,34.993v3c0,1.104-0.896,2-2,2s-2-0.896-2-2v-3c-0.296-2.177-8.345-16.562-16.488-30.148         C41.581,42.628,33.098,56.965,32.598,59.31v3.035C32.598,63.449,31.702,64.345,30.598,64.345z"/></g></g><g><g><path d="M70.42,73.97H28.652c-1.104,0-2-0.896-2-2v-9.5c0-1.104,0.896-2,2-2H70.42c1.104,0,2,0.896,2,2v9.5         C72.42,73.074,71.524,73.97,70.42,73.97z M30.652,69.97H68.42v-5.5H30.652V69.97z"/></g></g></g></g></g></g></g><!-- <text x="0" y="115" fill="#000000" font-size="5px" font-weight="bold" font-family="'Helvetica Neue', Helvetica, Arial-Unicode, Arial, Sans-serif">Created by Henry Ryder</text><text x="0" y="120" fill="#000000" font-size="5px" font-weight="bold" font-family="'Helvetica Neue', Helvetica, Arial-Unicode, Arial, Sans-serif">from the Noun Project</text> --></svg>