<svg xmlns="http://www.w3.org/2000/svg" xmlns:xlink="http://www.w3.org/1999/xlink" version="1.1" x="0px" y="0px" viewBox="0 0 100 125" enable-background="new 0 0 100 100" xml:space="preserve"><path d="M80.901,45.451c-0.804-1.602-2.756-2.241-4.367-1.421l-6.554,3.321l-7.137-7.13c-0.531-0.53-1.209-0.798-1.908-0.875  c-0.595,0.583-1.26,1.099-1.965,1.55c-0.102-0.632-0.228-1.248-0.374-1.843c3.39-2.13,5.652-5.895,5.652-10.198  c0-6.657-5.393-12.044-12.048-12.044c-6.661,0-12.054,5.388-12.054,12.044c0,5.509,3.699,10.142,8.75,11.578  c0.193,0.658,0.352,1.307,0.462,1.9c-2.072-0.569-3.927-1.666-5.396-3.152c-0.497-0.062-1.016-0.063-1.497,0.117l-6.234,2.283  l-4.801-8.585c-0.879-1.579-2.876-2.124-4.414-1.256c-1.561,0.878-2.133,2.856-1.25,4.418l6.143,11.016  c0.585,1.06,1.684,1.669,2.829,1.669c0.376,0,0.76-0.071,1.123-0.207l6.975-2.552l0.747,0.69l-3.225,32.16  c0,1.79,1.456,3.249,3.247,3.249c1.794,0,3.256-1.459,3.256-3.249l3.399-16.378h4.737v16.378c0,1.79,1.452,3.249,3.247,3.249  c1.791,0,3.243-1.459,3.243-3.249V48.073l5.555,5.548c0.623,0.62,1.462,0.954,2.3,0.954c0.497,0,1.007-0.125,1.472-0.362l8.658-4.4  C81.075,49,81.712,47.049,80.901,45.451z"/><!-- <text x="0" y="115" fill="#000000" font-size="5px" font-weight="bold" font-family="'Helvetica Neue', Helvetica, Arial-Unicode, Arial, Sans-serif">Created by Lane F. Kinkade</text><text x="0" y="120" fill="#000000" font-size="5px" font-weight="bold" font-family="'Helvetica Neue', Helvetica, Arial-Unicode, Arial, Sans-serif">from the Noun Project</text> --></svg>