<svg xmlns="http://www.w3.org/2000/svg" xmlns:xlink="http://www.w3.org/1999/xlink" version="1.1" x="0px" y="0px" viewBox="0 0 72 90" enable-background="new 0 0 72 72" xml:space="preserve"><g><path d="M29.531,31.876c0,0-13.514-6.799-7.071-13.114c6.443-6.315,8.75-4.548,8.75-4.548s-5.083,3.543-4.838,6.134   c0.246,2.59,3.239,3.446,4.056,3.922c0.817,0.475,1.739,0.875,1.579,4.116C31.801,32.52,29.531,31.876,29.531,31.876z"/><path d="M43.137,31.876c0,0,13.515-6.799,7.071-13.114c-6.442-6.315-8.751-4.548-8.751-4.548s5.084,3.543,4.839,6.134   c-0.244,2.59-3.237,3.446-4.056,3.922c-0.816,0.475-1.739,0.875-1.578,4.116C40.866,32.52,43.137,31.876,43.137,31.876z"/><g><path d="M48.094,36.924c-0.074-2.924,1.114-6.785,0.798-7.774c-0.145-0.446-4.104,3.489-5.326,3.794    c-1.223,0.307-3.009,0.115-3.668-3.972c-0.516-3.203,0.56-4.651,1.528-5.196c0.968-0.545,1.334-0.396,2.465-1.403    c-2.265-1.836-4.413-2.381-7.556-2.381c-3.144,0-5.291,0.544-7.557,2.381c1.13,1.007,1.498,0.858,2.465,1.403    c0.968,0.545,2.044,1.994,1.529,5.196c-0.658,4.087-2.445,4.279-3.667,3.972c-1.223-0.305-5.183-4.24-5.325-3.794    c-0.317,0.989,0.87,4.851,0.796,7.774c-0.021,0.823-1.422,2.852-1.422,3.159c0,2.184,5.891,3.411,6.831,5.224    c1.103,2.128-2.593,4.748-0.563,6c2.01,1.242,4.378,1.957,6.914,1.957s4.903-0.715,6.914-1.957c2.03-1.252-1.666-3.872-0.565-6    c0.941-1.813,6.833-3.04,6.833-5.224C49.516,39.775,48.114,37.747,48.094,36.924z M31.97,41.972    c-1.646,0.442-2.843,0.789-4.433-0.801s-2.112-2.886-0.522-4.476c1.591-1.591,4.344,0.574,5.934,2.164    C34.54,40.45,34.142,41.388,31.97,41.972z M35.468,44.257c0,1.152-0.504,1.314-0.504,1.314s-0.864,0.45-0.973-0.485    c-0.106-0.938,1.477-2.737,1.477-2.737s0.269-0.083,0.269,0.393C35.737,43.052,35.468,43.804,35.468,44.257z M38.677,45.086    c-0.107,0.936-0.973,0.485-0.973,0.485s-0.503-0.162-0.503-1.314c0-0.453-0.271-1.205-0.271-1.516    c0-0.476,0.271-0.393,0.271-0.393S38.783,44.148,38.677,45.086z M45.131,41.171c-1.589,1.59-2.786,1.243-4.434,0.801    c-2.171-0.584-2.567-1.521-0.978-3.112c1.589-1.59,4.344-3.755,5.933-2.164C47.244,38.285,46.721,39.581,45.131,41.171z"/><path d="M47.372,43.994c-0.371-0.617-1.371,0.063-1.875,0.323c-1.123,0.577-1.729,0.55-1.729,2.438    c0,1.089,0.898,1.882,1.166,3.614c0.268,1.743-1.073,1.743-2.252,2.36c-1.178,0.615-5.295,1.346-6.348,1.284    c-1.055,0.062-5.171-0.669-6.35-1.284c-1.179-0.617-2.518-0.617-2.25-2.36c0.267-1.732,1.165-2.525,1.165-3.614    c0-1.888-0.606-1.86-1.728-2.438c-0.503-0.26-1.505-0.94-1.875-0.323c-0.371,0.618,0.349,2.646,0.349,3.591    c0,1.292-1.286,4.634-0.857,5.679c0.577,1.408,1.286,1.531,2.518,1.983c1.529,0.561,1.683,0.588,2.679,0.938    c0.803,0.28,1.929,1.205,6.35,1.152c4.42,0.053,5.546-0.872,6.348-1.152c0.997-0.35,1.151-0.377,2.68-0.938    c1.232-0.452,1.942-0.575,2.519-1.983c0.429-1.045-0.857-4.387-0.857-5.679C47.023,46.641,47.742,44.612,47.372,43.994z"/></g></g><!-- <text x="0" y="87" fill="#000000" font-size="5px" font-weight="bold" font-family="'Helvetica Neue', Helvetica, Arial-Unicode, Arial, Sans-serif">Created by Nikolai Berda</text><text x="0" y="92" fill="#000000" font-size="5px" font-weight="bold" font-family="'Helvetica Neue', Helvetica, Arial-Unicode, Arial, Sans-serif">from the Noun Project</text> --></svg>