<svg xmlns="http://www.w3.org/2000/svg" xmlns:xlink="http://www.w3.org/1999/xlink" version="1.1" x="0px" y="0px" viewBox="0 0 100 125" style="enable-background:new 0 0 100 100;" xml:space="preserve"><style type="text/css">
	.st0{fill:#010202;}
	.st1{fill:none;}
	.st2{fill:#FFFFFF;}
</style><g><path class="st0" d="M36.2,64.5C36.2,64.5,36.2,64.5,36.2,64.5C36.2,64.5,36.2,64.5,36.2,64.5z"/><path class="st0" d="M36.5,64.6c0.1,0,0.1,0,0.2,0.1C36.7,64.7,36.6,64.6,36.5,64.6z"/><path class="st0" d="M36.7,64.7c0.1,0,0.1,0,0.2,0.1C36.8,64.7,36.8,64.7,36.7,64.7z"/><path class="st0" d="M36.2,64.5c0.1,0,0.1,0,0.2,0.1C36.3,64.5,36.2,64.5,36.2,64.5z"/><path class="st0" d="M36.4,64.5c0.1,0,0.1,0.1,0.2,0.1C36.5,64.6,36.4,64.6,36.4,64.5z"/><path class="st0" d="M37,64.8C37,64.8,37.1,64.8,37,64.8C37.1,64.8,37,64.8,37,64.8z"/><path class="st0" d="M37.2,64.9C37.2,64.9,37.2,64.9,37.2,64.9L37.2,64.9z"/><path class="st0" d="M37.2,64.9C37.2,64.9,37.2,64.9,37.2,64.9C37.2,64.9,37.2,64.9,37.2,64.9z"/><path class="st0" d="M36.9,64.8C37,64.8,37,64.8,36.9,64.8C37,64.8,37,64.8,36.9,64.8z"/><path class="st0" d="M36.9,64.7C36.9,64.8,36.9,64.8,36.9,64.7C36.9,64.8,36.9,64.8,36.9,64.7z"/><path class="st0" d="M35.2,64.1C35.2,64.1,35.2,64.1,35.2,64.1C35.2,64.1,35.2,64.1,35.2,64.1z"/><path class="st0" d="M35.9,64.4c0.1,0,0.1,0.1,0.2,0.1C36.1,64.4,36,64.4,35.9,64.4z"/><path class="st0" d="M35,64C35,64,35,64,35,64C35,64,35,64,35,64z"/><path class="st0" d="M35.3,64.1C35.3,64.1,35.3,64.1,35.3,64.1C35.3,64.1,35.3,64.1,35.3,64.1z"/><path class="st0" d="M35.1,64C35.1,64,35.1,64,35.1,64C35.1,64,35.1,64,35.1,64z"/><path class="st0" d="M35.1,64c0,0,0.1,0,0.1,0C35.1,64.1,35.1,64,35.1,64z"/><path class="st0" d="M35.6,64.3c0,0,0.1,0,0.1,0C35.7,64.3,35.7,64.3,35.6,64.3z"/><path class="st0" d="M35.3,64.1c0.1,0,0.1,0,0.2,0.1C35.5,64.2,35.4,64.2,35.3,64.1z"/><path class="st0" d="M35.7,64.3c0.1,0,0.1,0.1,0.2,0.1C35.9,64.4,35.8,64.3,35.7,64.3z"/><path class="st0" d="M35.5,64.2c0,0,0.1,0,0.1,0C35.6,64.2,35.6,64.2,35.5,64.2z"/><path class="st0" d="M37.1,64.8C37.1,64.8,37.1,64.9,37.1,64.8C37.1,64.9,37.1,64.8,37.1,64.8z"/><path class="st0" d="M63.7,64.7C63.7,64.8,63.6,64.8,63.7,64.7C63.6,64.8,63.7,64.8,63.7,64.7z"/><path class="st0" d="M63.8,64.7c-0.1,0-0.1,0-0.2,0.1C63.7,64.7,63.8,64.7,63.8,64.7z"/><path class="st0" d="M63.6,64.8C63.6,64.8,63.6,64.8,63.6,64.8C63.6,64.8,63.6,64.8,63.6,64.8z"/><path class="st0" d="M64.2,64.5c-0.1,0-0.1,0.1-0.2,0.1C64.1,64.6,64.1,64.6,64.2,64.5z"/><path class="st0" d="M64,64.6c-0.1,0-0.1,0-0.2,0.1C63.9,64.7,63.9,64.6,64,64.6z"/><path class="st0" d="M72.6,57c0,0-2,5-7,7l-3,13c0,0-1,5-5,6c-0.3,0.1-0.6,0.2-0.9,0.2L56,82l-0.7,1.5c-0.7,0.1-1.3,0.2-1.9,0.3   L53,83l-0.4,0.9c-0.4,0-0.8,0.1-1.1,0.1L51,83l-0.5,1l-1,0L49,83l-0.5,0.9l-0.1,0c-0.3,0-0.6-0.1-1-0.1L47,83l-0.4,0.7   c-0.6-0.1-1.3-0.2-2-0.3L44,82l-0.6,1.1c-0.1,0-0.3-0.1-0.4-0.1c-4-1-5-6-5-6l-3-13c-5-2-7-7-7-7s-1,3,0,5s6,7,6,9s5,12,5,12l7.5,5   l0.5,1v-0.7l0.1,0.1L48,91l0.5-1l0.5,1v1l1,1l1-1l0.2-1.7l0.3,0.7l1-2l9-6c0,0,5-10,5-12s5-7,6-9S72.6,57,72.6,57z"/><path class="st0" d="M63.6,64.8C63.5,64.8,63.5,64.8,63.6,64.8C63.5,64.8,63.5,64.8,63.6,64.8z"/><path class="st0" d="M64.4,64.5c-0.1,0-0.1,0-0.2,0.1C64.3,64.5,64.3,64.5,64.4,64.5z"/><path class="st0" d="M63.4,64.9C63.3,64.9,63.3,64.9,63.4,64.9L63.4,64.9z"/><path class="st0" d="M63.4,64.9C63.4,64.9,63.4,64.9,63.4,64.9C63.4,64.9,63.4,64.9,63.4,64.9z"/><path class="st0" d="M63.5,64.8C63.4,64.8,63.4,64.9,63.5,64.8C63.4,64.9,63.4,64.8,63.5,64.8z"/><path class="st0" d="M65.5,64C65.5,64,65.5,64,65.5,64C65.5,64,65.5,64,65.5,64z"/><path class="st0" d="M65.4,64.1C65.4,64.1,65.3,64.1,65.4,64.1C65.3,64.1,65.4,64.1,65.4,64.1z"/><path class="st0" d="M65.3,64.1C65.3,64.1,65.2,64.1,65.3,64.1C65.2,64.1,65.3,64.1,65.3,64.1z"/><path class="st0" d="M65.5,64c0,0-0.1,0-0.1,0C65.4,64.1,65.5,64,65.5,64z"/><path class="st0" d="M65.2,64.1c-0.1,0-0.1,0-0.2,0.1C65.1,64.2,65.2,64.2,65.2,64.1z"/><path class="st0" d="M64.4,64.5C64.4,64.5,64.4,64.5,64.4,64.5C64.4,64.5,64.4,64.5,64.4,64.5z"/><path class="st0" d="M65.6,64C65.5,64,65.5,64,65.6,64C65.5,64,65.6,64,65.6,64z"/><path class="st0" d="M65,64.2c0,0-0.1,0-0.1,0C65,64.2,65,64.2,65,64.2z"/><path class="st0" d="M64.8,64.3c-0.1,0-0.1,0.1-0.2,0.1C64.7,64.4,64.7,64.3,64.8,64.3z"/><path class="st0" d="M64.6,64.4c-0.1,0-0.1,0.1-0.2,0.1C64.5,64.4,64.5,64.4,64.6,64.4z"/><path class="st0" d="M64.9,64.3c0,0-0.1,0-0.1,0C64.9,64.3,64.9,64.3,64.9,64.3z"/></g><path class="st1" d="M40,55c5,0,5,6,5,6C46,54,40,55,40,55z"/><path class="st1" d="M58,62c0,0,2-1,2-2s0-1,0-1l-2,1V62z"/><path class="st1" d="M55.1,61c0,0,0-6,5-6C60.1,55,54.1,54,55.1,61z"/><path class="st1" d="M40,60c0,1,2,2,2,2v-2l-2-1C40,59,40,59,40,60z"/><path class="st2" d="M32.9,42.2C33,42.1,33,42,33,42S33,42.1,32.9,42.2z"/><path class="st2" d="M65.9,42.2c0-0.1,0-0.2,0-0.2S65.9,42.1,65.9,42.2z"/><path d="M92.3,27.8c-5.1-5.4-12.6-6.1-16.1-6.5c-6.2-0.6-14.8,0.4-18.4,3.2c-2.6-1-5.5-1.5-8.5-1.5c-2.3,0-4.5,0.3-6.5,0.9  C39.5,20.6,30.5,19.3,24,20c-3.5,0.4-10.9,1.1-16,7c-7.8,9.1-3.6,23-3,23c0.6,0-1.8-14,6-20c3.3-2.6,8.8-3.8,13-2  c1.7,0.7,2.8,1.7,3.7,2.8c-2.9,2.4-4.7,6-4.7,9.9c0,3.1,1.1,6,3,8.2c1,5.9,4.6,11,9.5,14.4c2.8,6.8,5.9,9.6,8,10.8L45,80l1.2-3.6  L47,78l0.6-1.3c0.3,0,0.5,0.1,0.8,0.1L49,78l0.5-1.1c0.7,0,1.3,0.1,1.6,0.1l0,0c0,0,0,0,0.1,0c0.1,0,0.1,0,0.1,0l0,0  c0,0,0.1,0,0.1,0l0.5,1l0.5-1.1c0.3,0,0.6,0,0.9-0.1L54,78l0.7-1.3c0.1,0,0.1,0,0.2-0.1L56,80l1.5-6.1c2.1-1.4,5-4.6,7.7-11.8  l0.2-0.2C69.7,61.1,73,57,73,52c0-0.9-0.1-1.8-0.3-2.7C74.7,47,76,44,76,40.7c0-3.5-1.4-6.7-3.8-9.1c0.9-1.1,2.1-2.2,4-3  c4.3-1.6,9.7-0.5,13.1,1.8c7.9,5.5,5.4,18.5,6,18.5C95.9,49,100.2,36.2,92.3,27.8z M32.9,42.2C33,42.1,33,42,33,42  S33,42.1,32.9,42.2c-0.1,0.5,0.2,1.5,3.6,1.7c-0.3,0.4-0.6,1-0.6,1.5c0,1.4,1.1,2.5,2.5,2.5s2.5-1.1,2.5-2.5c0-0.4-0.1-0.8-0.3-1.1  C44,45.3,44,48,44,48l-2,1C32.2,48.1,32.7,43.3,32.9,42.2z M38.8,46.5c-0.4-1.3-0.1-2.2,0-2.4c0,0,0,0,0,0c0,0,0,0,0,0  C39.3,45,38.8,46.5,38.8,46.5z M42,62c0,0-2-1-2-2s0-1,0-1l2,1V62z M45,61c0,0,0-6-5-6C40,55,46,54,45,61z M45.7,47  C43.9,39.9,35,38.1,35,38.1C47.5,36.3,45.7,47,45.7,47z M53.9,47c0,0-1.7-10.7,10.1-8.9C64,38.1,55.6,39.9,53.9,47z M59.8,46.5  c-0.4-1.2-0.2-2-0.1-2.3c0,0,0.1,0,0.1,0C60.2,45.1,59.8,46.5,59.8,46.5z M60,60c0,1-2,2-2,2v-2l2-1C60,59,60,59,60,60z M55.1,61  c-1-7,5-6,5-6C55.1,55,55.1,61,55.1,61z M57.8,49L56,48c0,0,0-2.2,2.1-3.3C58.1,45,58,45.2,58,45.5c0,1.4,1.1,2.5,2.5,2.5  s2.5-1.1,2.5-2.5c0-0.6-0.2-1.1-0.5-1.5c3.3-0.2,3.5-1.3,3.5-1.7c0-0.1,0-0.2,0-0.2s0,0.1,0,0.2C66.1,43.3,66.6,48.1,57.8,49z"/><path d="M33,23c0-0.1-0.3-0.2-0.6-0.3c-2.9-0.8-9-4.6-10.4-9.7c-0.9-3.3,0.5-5.8,0-6c-0.6-0.2-2.5,2.7-3,6c-0.1,0.8-1.1,7,3,10  C26.3,26.2,33,23.5,33,23z"/><path d="M67,24c0-0.1,0.3-0.2,0.5-0.3c2.2-0.8,7-4.6,8.1-9.7c0.7-3.3-0.4-5.8,0-6c0.5-0.2,1.9,2.7,2.3,6c0.1,0.8,0.8,7-2.3,10  C72.2,27.2,67,24.5,67,24z"/><path d="M28,32c0,0-8-2-11,10c0,0-1,4-1,5s9-2,9-2L28,32L28,32L28,32z"/><path d="M71,33c0,0,7.3-2,10.1,10c0,0,0.9,4,0.9,5s-8.3-2-8.3-2L71,33L71,33L71,33z"/><!-- <text x="0" y="115" fill="#000000" font-size="5px" font-weight="bold" font-family="'Helvetica Neue', Helvetica, Arial-Unicode, Arial, Sans-serif">Created by Emir Palavan</text><text x="0" y="120" fill="#000000" font-size="5px" font-weight="bold" font-family="'Helvetica Neue', Helvetica, Arial-Unicode, Arial, Sans-serif">from the Noun Project</text> --></svg>